# xmcd
#
# Track frame offsets:
#	183
#	18558
#	30458
#	54033
#	78433
#	102470
#	117233
#	140633
#	158783
#	171983
#	183008
#	197545
#	228308
#	242258
#	265058
#
# Disc length: 3845
#
# Revision: 1
# Processed by: cddbd v1.5.1PL0 Copyright (c) Steve Scherf et al.
# Submitted via: CDex 1.51
# Normalized: r0:DSETVAR1,TDELIM( - )
#
DISCID=b50f030f
DTITLE=Various Artist - Jazz-Club Mainstream Trumpet
DYEAR=1991
DGENRE=Jazz
TTITLE0=Louis Armstrong - Just One Of Those Things
TTITLE1=Roy Eldridge - Little Jazz
TTITLE2=Rex Stewart - My Kind Of Gal
TTITLE3=Buck Clayton - Rompin With Buck
TTITLE4=Harry Edison - One O'Clock Jump
TTITLE5=Charlie Shavers - Swedish Schnapps
TTITLE6=Bill Coleman - Colemanology
TTITLE7=Taft Jordan - Second Balcony Jump
TTITLE8=Jonah Jones - Little Sir Echo
TTITLE9=Joe Newman - Oh! Lady Be Good
TTITLE10=Ray Nance - Hi Yah
TTITLE11=Harry Edison and Buck Clayton - Critic's Delight
TTITLE12=Billy Butterfield - In A Mellotone
TTITLE13=Ruby Braff - These Foolish Things
TTITLE14=Clark Terry - I Want A Little Girl
EXTD=YEAR: 1991
EXTT0=
EXTT1=
EXTT2=
EXTT3=
EXTT4=
EXTT5=
EXTT6=
EXTT7=
EXTT8=
EXTT9=
EXTT10=
EXTT11=
EXTT12=
EXTT13=
EXTT14=
PLAYORDER=
